<?xml version="1.0" standalone="no"?><!DOCTYPE svg PUBLIC "-//W3C//DTD SVG 1.1//EN" "http://www.w3.org/Graphics/SVG/1.1/DTD/svg11.dtd"><svg t="1606548405400" class="icon" viewBox="0 0 1024 1024" version="1.1" xmlns="http://www.w3.org/2000/svg" p-id="28089" xmlns:xlink="http://www.w3.org/1999/xlink" width="64" height="64"><defs><style type="text/css"></style></defs><path d="M287.85 669.096L454.132 785.95l-31.521 44.855L256.329 713.95l31.522-44.854zM469.906 219.13l45.542 30.577-237.362 353.53-45.542-30.577 237.362-353.53z" p-id="28090"></path><path d="M533.467 274.286c-55.478 0-100.571-45.093-100.571-100.572s45.13-100.571 100.571-100.571c55.443 0 100.572 45.092 100.572 100.571s-45.093 100.572-100.572 100.572z m0-146.286c-25.197 0-45.714 20.517-45.714 45.714s20.517 45.715 45.714 45.715c25.198 0 45.715-20.517 45.715-45.715S558.665 128 533.467 128zM213.467 748.47c-55.478 0-100.571-45.092-100.571-100.57s45.093-100.572 100.571-100.572S314.04 592.421 314.04 647.899s-45.093 100.572-100.572 100.572z m0-146.285c-25.197 0-45.714 20.517-45.714 45.714s20.517 45.715 45.714 45.715 45.715-20.517 45.715-45.715-20.48-45.714-45.715-45.714zM498.03 950.857c-55.48 0-100.572-45.092-100.572-100.571s45.093-100.572 100.572-100.572S598.6 794.807 598.6 850.286 553.51 950.857 498.03 950.857z m0-146.286c-25.198 0-45.715 20.517-45.715 45.715S472.832 896 498.03 896s45.714-20.517 45.714-45.714-20.517-45.715-45.714-45.715z" p-id="28091"></path><path d="M573.733 867.072l-6.986-54.418 54.382-6.985 6.985 54.418-54.381 6.985z m108.836-14.007l-6.985-54.418 54.382-6.949 6.985 54.419-54.382 6.948z m108.837-13.97l-6.985-54.418 54.381-6.986 6.985 54.419-54.381 6.985z m108.8-13.97l-2.158-16.714-14.885-25.234 10.826-6.4-0.768-6.07 14.19-1.83 23.076-13.567 36.096 61.33-66.377 8.485z m-44.837-89.235l-27.867-47.287 47.287-27.867 27.867 47.287-47.287 27.867z m-55.698-94.537l-27.868-47.287L819.09 566.2l27.868 47.287-47.287 27.867z m-55.698-94.537l-27.831-47.25 47.287-27.831 27.83 47.25-47.286 27.831z m-55.699-94.537l-27.83-47.25 47.286-27.831 27.831 47.25-47.287 27.83z m-55.661-94.537l-27.831-47.25 47.287-27.831 27.83 47.25-47.286 27.83z m-55.699-94.537l-14.555-24.723 47.287-27.867 14.555 24.722-47.287 27.868z" p-id="28092"></path></svg>