<?xml version="1.0" standalone="no"?><!DOCTYPE svg PUBLIC "-//W3C//DTD SVG 1.1//EN" "http://www.w3.org/Graphics/SVG/1.1/DTD/svg11.dtd"><svg t="1606548155989" class="icon" viewBox="0 0 1024 1024" version="1.1" xmlns="http://www.w3.org/2000/svg" p-id="18554" xmlns:xlink="http://www.w3.org/1999/xlink" width="64" height="64"><defs><style type="text/css"></style></defs><path d="M870.047666 822.930313c-33.90612 0-64.549575 21.559174-78.112023 54.825556h-162.493479c-6.71725-48.939965-39.27992-89.435387-83.485823-103.637574v-152.257669h204.716194c56.424901 0 102.358097-49.259834 102.358097-109.715086 0-60.455251-45.933196-109.651112-102.358097-109.651111H272.916117c-56.424901 0-102.358097 49.259834-102.358098 109.651111 0 60.455251 45.933196 109.715085 102.358098 109.715086h204.716194v152.129722c-44.333851 14.202186-76.89652 54.697608-83.485823 103.637573H231.589035c-18.680353-46.253065-68.963768-67.428397-112.14609-47.34062-31.21922 14.586029-51.306996 47.468568-51.306997 83.997614 0.127948 50.411363 38.384286 91.290628 85.469012 91.16268 33.778172-0.127948 64.29368-21.559174 77.920101-54.569661H404.318324C423.574441 993.868335 464.453706 1023.936026 511.794326 1023.936026c47.404594 0 88.219885-30.067691 107.412028-73.058092h172.729289c18.680353 46.253065 68.963768 67.428397 112.14609 47.34062 31.21922-14.586029 51.306996-47.468568 51.306996-83.933639 0-50.475337-38.256339-91.354602-85.341063-91.354602zM272.916117 548.73856c-18.872274-0.83166-33.458303-17.912667-32.56267-38.192365 0.83166-18.936248 14.969872-34.034067 32.626643-34.865727h477.564497c18.872274 0.83166 33.458303 17.976641 32.56267 38.192365-0.767686 19.000222-14.969872 34.034067-32.56267 34.865727H272.916117zM511.794326 950.877934c-28.212451 0-51.179049-24.629917-51.179049-54.889529 0-30.195639 22.966598-54.825556 51.179049-54.825556 28.212451 0 51.179049 24.629917 51.179048 54.825556 0 30.259612-22.966598 54.88953-51.179048 54.889529zM255.899083 768.040783h97.560061c18.872274 0 34.162015-16.377296 34.162015-36.593019 0-20.215724-15.353715-36.59302-34.162015-36.59302H255.899083c-103.637573-0.127948-187.571213-90.075125-187.699161-201.133661-0.447817-99.159407 66.98058-183.604837 158.335182-198.638682l20.343672-3.454586 6.653276-20.791489C291.2766 152.804646 395.170069 73.349173 511.794326 73.349173s220.389778 79.327525 258.262274 197.551127l6.781224 20.791489 20.343671 3.454585c91.354602 15.033846 158.782998 99.479276 158.335182 198.638683 0 110.930588-84.189535 201.133661-187.699161 201.133661H664.051995c-18.8083 0-34.162015 16.377296-34.162015 36.593019 0 20.215724 15.353715 36.59302 34.162015 36.59302H767.689569c141.062253 0 255.895243-123.021638 255.895243-274.191753 0.575764-126.92404-80.607002-237.470785-196.015757-266.578869C755.918387 40.40266 556.575993-48.90478 382.119411 27.799819c-84.44543 37.10481-151.489984 108.9474-186.163789 199.534316C80.610842 256.250298-0.635898 366.92499 0.00384 493.913004c0 151.170115 114.83299 274.191753 255.895243 274.191753z" p-id="18555"></path></svg>