<?xml version="1.0" standalone="no"?><!DOCTYPE svg PUBLIC "-//W3C//DTD SVG 1.1//EN" "http://www.w3.org/Graphics/SVG/1.1/DTD/svg11.dtd"><svg t="1606548634047" class="icon" viewBox="0 0 1024 1024" version="1.1" xmlns="http://www.w3.org/2000/svg" p-id="35781" xmlns:xlink="http://www.w3.org/1999/xlink" width="64" height="64"><defs><style type="text/css"></style></defs><path d="M507.029333 242.005333h7.018667l203.477333-113.514666a7.04 7.04 0 0 0 3.818667-6.4 7.04 7.04 0 0 0-3.84-6.357334L514.709333 0.96a7.018667 7.018667 0 0 0-7.04 0l-203.456 114.773333a7.018667 7.018667 0 0 0 0 12.757334l202.837334 113.493333z m514.112 50.368a7.68 7.68 0 0 0-3.2-4.458666l-188.16-109.056-12.757333-6.997334h-7.018667l-24.874666 14.016-180.501334 100.138667a7.04 7.04 0 0 0-3.2 4.458667 7.018667 7.018667 0 0 0 3.84 6.378666l191.36 105.856v440.682667l8.917334 5.098667c2.730667 0.64 5.546667 0.64 8.277333 0a16.512 16.512 0 0 0 8.32 0l191.338667-108.416a17.216 17.216 0 0 0 8.938666-15.317334V293.653333l-1.28-1.28z m-165.845333 97.578667l102.058667-57.386667v400.490667l-102.698667 58.026667 0.64-401.130667zM420.906667 292.373333a7.018667 7.018667 0 0 0-3.84-6.357333l-202.837334-114.154667a7.018667 7.018667 0 0 0-7.018666 0l-202.837334 114.133334H0.576v436.864a17.216 17.216 0 0 0 8.938667 15.296l191.36 108.416c2.709333 0.64 5.546667 0.64 8.277333 0a16.554667 16.554667 0 0 0 8.298667 0l8.917333-5.12V404.650667l191.36-105.877334c2.133333-1.386667 3.370667-3.84 3.2-6.378666zM64.362667 331.306667l102.058666 58.666666v400.490667l-102.058666-58.666667V331.306667z"  p-id="35782"></path><path d="M720.704 463.296a7.04 7.04 0 0 0-3.84-6.378667l-202.176-115.413333a7.018667 7.018667 0 0 0-7.04 0l-203.456 114.133333a7.04 7.04 0 0 0-3.84 6.4v431.722667c0.682667 4.970667 3.477333 9.386667 7.68 12.117333l191.36 108.416a17.216 17.216 0 0 0 11.456 7.04 16.576 16.576 0 0 0 8.32 0l191.338667-108.437333a17.216 17.216 0 0 0 8.917333-15.296V463.296h1.28z m-179.861333 103.317333l118.613333-63.786666v397.312l-118.613333 63.786666V566.613333zM362.24 898.858667V500.288l117.994667 63.786667v400.469333l-121.173334-68.224 3.178667 2.56z"  p-id="35783"></path></svg>
