<?xml version="1.0" standalone="no"?><!DOCTYPE svg PUBLIC "-//W3C//DTD SVG 1.1//EN" "http://www.w3.org/Graphics/SVG/1.1/DTD/svg11.dtd"><svg t="1606548391767" class="icon" viewBox="0 0 1129 1024" version="1.1" xmlns="http://www.w3.org/2000/svg" p-id="27947" xmlns:xlink="http://www.w3.org/1999/xlink" width="70.5625" height="64"><defs><style type="text/css"></style></defs><path d="M878.70381626 903.10679552h-634.77014528A110.28126947 110.28126947 0 0 1 133.85327845 793.22727993V366.1635675a110.28126947 110.28126947 0 0 1 110.08039253-110.28126833h634.77014528a110.28126947 110.28126947 0 0 1 110.28126833 110.28126833V793.22727993a110.28126947 110.28126947 0 0 1-110.28126833 109.87951559z m-634.77014528-609.45969038a72.51646237 72.51646237 0 0 0-72.31558656 72.51646236V793.22727993a72.51646237 72.51646237 0 0 0 72.31558656 72.51646236h634.77014528A72.51646237 72.51646237 0 0 0 951.22027862 793.22727993V366.1635675a72.51646237 72.51646237 0 0 0-72.51646236-72.51646236z"  p-id="27948"></path><path d="M823.86449637 630.11545771a18.2797733 18.2797733 0 0 1-13.86048741-6.22717611l-94.01026218-102.64795705a18.88240299 18.88240299 0 1 1 27.92185173-25.51133184l94.01026219 102.64795705a20.08766237 20.08766237 0 0 1-1.20525937 26.71659235 18.48065024 18.48065024 0 0 1-12.85610496 5.0219156zM512.30484594 687.76705024a17.87801941 17.87801941 0 0 1-12.85610381-5.22279253 20.08766237 20.08766237 0 0 1 0-26.71659236l148.0460743-155.07675705a18.88240299 18.88240299 0 0 1 27.31922205 26.11396267l-148.64870514 155.07675705a20.08766237 20.08766237 0 0 1-13.8604874 5.82542222zM444.60942223 662.85834809a18.68152605 18.68152605 0 0 1-15.06574677-7.43243548l-109.0760101-146.03730831a18.88240299 18.88240299 0 1 1 30.13149469-22.6990592L459.67516901 632.52597646a18.68152605 18.68152605 0 0 1-15.06574678 30.13149469z"  p-id="27949"></path><path d="M304.59841195 527.26662371a70.90945024 70.90945024 0 1 1 70.90945024-70.70857329 70.90945024 70.90945024 0 0 1-70.90945024 70.70857329z m0-103.85321642a33.14464313 33.14464313 0 1 0 33.14464427 33.14464313 32.94376733 32.94376733 0 0 0-33.14464427-33.14464313zM465.70146816 762.29227861a70.90945024 70.90945024 0 1 1 70.90945024-70.7085733 70.90945024 70.90945024 0 0 1-70.90945024 70.7085733z m0-103.85321642a33.14464313 33.14464313 0 1 0 33.14464427 33.14464312 32.94376733 32.94376733 0 0 0-33.14464427-33.14464312zM692.08942821 543.73850681a70.90945024 70.90945024 0 1 1 70.70857329-70.9094491 70.90945024 70.90945024 0 0 1-70.70857329 70.9094491z m0-103.85321643a33.14464313 33.14464313 0 1 0 32.94376731 32.94376733 33.14464313 33.14464313 0 0 0-32.94376731-32.94376733zM849.57670514 727.54062222a70.90945024 70.90945024 0 1 1 70.9094491-70.90945024A70.90945024 70.90945024 0 0 1 849.57670514 727.54062222z m0-103.85321643a33.14464313 33.14464313 0 1 0 32.1402607 32.94376619 33.14464313 33.14464313 0 0 0-32.1402607-32.94376619zM861.83017928 216.30960299H253.97750216a19.08327993 19.08327993 0 0 1 0-37.96568292h607.85267712a19.08327993 19.08327993 0 0 1 0 37.96568292zM791.92511261 132.74492587h-468.04254379a18.88240299 18.88240299 0 0 1 0-37.76480598h468.04254379a18.88240299 18.88240299 0 0 1 0 37.76480598z"  p-id="27950"></path></svg>
