<?xml version="1.0" standalone="no"?><!DOCTYPE svg PUBLIC "-//W3C//DTD SVG 1.1//EN" "http://www.w3.org/Graphics/SVG/1.1/DTD/svg11.dtd"><svg t="1606547839376" class="icon" viewBox="0 0 1040 1024" version="1.1" xmlns="http://www.w3.org/2000/svg" p-id="2933" xmlns:xlink="http://www.w3.org/1999/xlink" width="65" height="64"><defs><style type="text/css"></style></defs><path d="M996.6592 351.52896L547.61472 41.58464a49.26976 49.26976 0 0 0-55.22432-0.88576L48.75264 335.05792c-29.57312 19.33312-29.77792 62.592-0.39424 82.21184L495.616 715.8272c1.92512 1.28512 3.93216 2.38592 5.98016 3.37408v227.66592a49.2032 49.2032 0 0 1-9.27744-4.66432l-337.21344-222.592a44.21632 44.21632 0 0 1-19.90656-36.992v-66.93376c0-0.40448 0-1.2544 1.1008-1.84832 1.11616-0.5888 1.8176-0.128 2.15552 0.09728l299.5456 196.16256a20.48 20.48 0 0 0 22.44096-34.26816l-299.5456-196.16256a42.99776 42.99776 0 0 0-44.06784-1.85344 43.01824 43.01824 0 0 0-22.58432 37.87776v66.93376a85.0432 85.0432 0 0 0 38.2976 71.168L469.75488 976.384a89.81504 89.81504 0 0 0 49.55136 14.9504c17.72544 0 35.44576-5.2736 50.84672-15.80544l303.65184-209.13152a82.08896 82.08896 0 0 0 35.77344-67.80416V474.85952l86.4256-57.96864c23.11168-15.50848 23.45472-49.39264 0.65536-65.36192z m-505.5488 164.53632c-17.5104 17.5104-47.65184 4.91008-47.76448-19.968l-1.52576-268.09344c-0.11776-24.87808 29.91104-37.20192 47.58528-19.52768l201.3696 134.8096c10.9568 10.9568 11.03872 28.64128 0.18432 39.49568L491.1104 516.06528z m377.50784 182.528c0 13.60896-6.7072 26.3168-17.99168 34.03264l-303.65184 209.13152c-1.42336 0.9728-2.92352 1.75104-4.41344 2.56v-224.35328a48.81408 48.81408 0 0 0 7.8592-4.1984l318.19776-213.43232v196.25984z"  p-id="2934"></path></svg>
