<?xml version="1.0" standalone="no"?><!DOCTYPE svg PUBLIC "-//W3C//DTD SVG 1.1//EN" "http://www.w3.org/Graphics/SVG/1.1/DTD/svg11.dtd"><svg t="1606548322680" class="icon" viewBox="0 0 1024 1024" version="1.1" xmlns="http://www.w3.org/2000/svg" p-id="27669" width="64" height="64" xmlns:xlink="http://www.w3.org/1999/xlink"><defs><style type="text/css"></style></defs><path d="M916.48 250.88c-46.08-30.72-71.68-46.08-71.68-46.08l-25.6-15.36v-20.48c0-51.2-40.96-92.16-92.16-92.16-25.6 0-46.08 10.24-61.44 25.6L542.72 30.72c-15.36-10.24-30.72-10.24-46.08 0L117.76 250.88c-15.36 10.24-25.6 25.6-25.6 40.96v61.44c-20.48 10.24-40.96 35.84-40.96 66.56 0 30.72 20.48 51.2 40.96 61.44v245.76c0 15.36 10.24 35.84 25.6 40.96l373.76 215.04c15.36 10.24 30.72 10.24 46.08 0l373.76-215.04c15.36-10.24 25.6-25.6 25.6-40.96V291.84c5.12-15.36-5.12-30.72-20.48-40.96z m-245.76-15.36l-97.28 271.36-358.4-92.16 455.68-179.2c-5.12-5.12-5.12 0 0 0z m61.44 312.32l-112.64-30.72L716.8 256h10.24l25.6 281.6c-10.24 5.12-15.36 10.24-20.48 10.24z m-179.2 5.12l-51.2 138.24c-5.12 0-5.12 0-10.24 5.12L220.16 465.92l332.8 87.04z m0 148.48l46.08-133.12 112.64 30.72-158.72 102.4z m-35.84-619.52L640 153.6v35.84L168.96 378.88c-5.12-10.24-15.36-15.36-25.6-20.48V296.96l373.76-215.04z m373.76 640l-373.76 215.04-373.76-215.04V476.16h5.12L460.8 737.28c0 5.12-5.12 10.24-5.12 15.36 0 35.84 30.72 61.44 61.44 61.44s61.44-30.72 61.44-61.44v-10.24l163.84-107.52c10.24 5.12 15.36 10.24 30.72 10.24 30.72 0 56.32-25.6 56.32-56.32 0-20.48-10.24-40.96-30.72-51.2l-25.6-296.96c5.12-5.12 10.24-5.12 15.36-10.24l30.72 20.48 71.68 46.08v424.96z"  p-id="27670"></path></svg>
