<?xml version="1.0" standalone="no"?><!DOCTYPE svg PUBLIC "-//W3C//DTD SVG 1.1//EN" "http://www.w3.org/Graphics/SVG/1.1/DTD/svg11.dtd"><svg t="1606548830098" class="icon" viewBox="0 0 1025 1024" version="1.1" xmlns="http://www.w3.org/2000/svg" p-id="36109" xmlns:xlink="http://www.w3.org/1999/xlink" width="64.0625" height="64"><defs><style type="text/css"></style></defs><path d="M353.284619 0H71.996392a50.922869 50.922869 0 0 0-50.865134 50.807397v189.488498a50.922869 50.922869 0 0 0 50.865134 50.865133h117.549842v30.311232h-50.172305a23.094272 23.094272 0 0 0 0 46.188543h146.533153a23.094272 23.094272 0 0 0 0-46.188543h-50.172305v-30.311232h117.549842A50.922869 50.922869 0 0 0 404.149752 240.295895V50.807397A50.922869 50.922869 0 0 0 353.284619 0zM357.961209 240.295895a4.67659 4.67659 0 0 1-4.67659 4.67659H71.996392a4.67659 4.67659 0 0 1-4.67659-4.67659V50.807397a4.618854 4.618854 0 0 1 4.67659-4.618854h281.288227a4.618854 4.618854 0 0 1 4.67659 4.618854z"  p-id="36110"></path><path d="M737.688769 639.538115a46.188543 46.188543 0 1 1-79.040145 32.736129 46.188543 46.188543 0 0 1 79.040145-32.736129z"  p-id="36111"></path><path d="M542.715381 561.999098v285.098782h412.175011a24.248985 24.248985 0 0 0 24.248986-24.248985V561.999098zM817.652684 785.205232a23.094272 23.094272 0 0 1-32.620659 0l-22.921064-23.094271a23.094272 23.094272 0 0 1-6.466396-12.644114 92.377086 92.377086 0 1 1 26.500676-26.500676 23.094272 23.094272 0 0 1 12.644114 6.466396l22.747857 22.805593a23.094272 23.094272 0 0 1 0.115472 32.967072z"  p-id="36112"></path><path d="M954.890392 429.207037H474.99143a70.495264 70.495264 0 0 0-70.437528 70.437528v323.319801a70.495264 70.495264 0 0 0 70.437528 70.437528h217.028417a19.918809 19.918809 0 0 0 0 2.655842v81.753721h-102.076681a23.094272 23.094272 0 1 0 0 46.188543h249.99549a23.094272 23.094272 0 0 0 0-46.188543h-101.903473v-81.869193a19.861074 19.861074 0 0 0 0-2.655841h217.028416a70.495264 70.495264 0 0 0 70.437529-70.437528v-323.319802a70.495264 70.495264 0 0 0-70.610736-70.322056z m24.248986 393.641858a24.248985 24.248985 0 0 1-24.248986 24.248985H474.99143a24.248985 24.248985 0 0 1-24.248985-24.248985v-323.319802a24.248985 24.248985 0 0 1 24.248985-24.248985h479.898962a24.248985 24.248985 0 0 1 24.248986 24.248985z"  p-id="36113"></path><path d="M817.652684 752.353631l-22.747858-22.805593a23.094272 23.094272 0 0 0-12.644113-6.466396 92.377086 92.377086 0 1 0-26.500677 26.500676A23.094272 23.094272 0 0 0 762.110961 762.110961l23.094271 22.747857a23.094272 23.094272 0 1 0 32.620659-32.620658z m-79.963915-47.343257a46.188543 46.188543 0 0 1-79.040145-32.73613 46.188543 46.188543 0 0 1 79.040145-32.736129 46.188543 46.188543 0 0 1 0 65.472259zM923.770862 386.829048a23.094272 23.094272 0 0 1-23.094272-23.094271V134.755074h-320.433018a23.094272 23.094272 0 1 1 0-46.188543H946.865133V363.734777a23.094272 23.094272 0 0 1-23.094271 23.094271zM265.584123 896.866035H0V490.464592a23.094272 23.094272 0 0 1 46.188543 0v360.2129h219.39558a23.094272 23.094272 0 0 1 0 46.188543z"  p-id="36114"></path></svg>
