<?xml version="1.0" standalone="no"?><!DOCTYPE svg PUBLIC "-//W3C//DTD SVG 1.1//EN" "http://www.w3.org/Graphics/SVG/1.1/DTD/svg11.dtd"><svg t="1606548717831" class="icon" viewBox="0 0 1024 1024" version="1.1" xmlns="http://www.w3.org/2000/svg" p-id="35968" xmlns:xlink="http://www.w3.org/1999/xlink" width="64" height="64"><defs><style type="text/css"></style></defs><path d="M865.142857 277.371429c-1.714286-0.685714-3.657143-1.371429-5.714286-1.714286C730.628571 250.171429 625.257143 188.685714 521.6 109.714286c-6.514286-4.914286-19.542857-5.142857-25.942857-0.228572-47.428571 36.457143-96.228571 72-148.342857 101.485715-57.028571 32.228571-126.742857 47.428571-189.6 64-16.8 4.457143-21.028571 20.228571-16.685715 33.142857 5.257143 119.542857 24.8 244.914286 74.628572 353.714285C268.228571 776.8 392.228571 862.857143 502.857143 915.2c3.771429 1.828571 7.657143 2.628571 11.2 2.742857 4.571429 0.571429 9.6-0.228571 14.742857-2.742857 110.742857-54.514286 224.457143-140.342857 280.571429-253.257143 53.371429-107.657143 70.171429-240.571429 74.857142-360 0.8-14.514286-8.457143-22.628571-19.085714-24.571428z m-100.114286 358.285714C718.628571 737.142857 613.6 813.828571 515.657143 864c-97.942857-48.457143-197.942857-120.457143-250.285714-217.714286-51.314286-95.2-67.085714-218.171429-72.342858-326.971428 55.542857-14.857143 111.2-30.742857 163.885715-54.057143 54.4-24.114286 104.571429-62.285714 152.114285-98.971429 99.314286 72 201.485714 130.514286 322.971429 157.028572-5.714286 105.485714-23.2 216.8-66.971429 312.342857z" p-id="35969"></path><path d="M666.285714 382.285714C599.085714 450.285714 531.771429 518.171429 464.571429 586.057143c-35.657143-36-71.314286-72-106.857143-108.114286-23.428571-23.771429-59.885714 13.028571-36.342857 36.685714l122.971428 124.342858c0.685714 0.685714 1.142857 1.142857 1.828572 1.714285 9.028571 9.485714 24.228571 12.914286 36.114285 0.914286 73.485714-74.285714 146.857143-148.457143 220.342857-222.628571 23.428571-23.657143-12.914286-60.342857-36.342857-36.685715z" p-id="35970"></path></svg>