<?xml version="1.0" standalone="no"?><!DOCTYPE svg PUBLIC "-//W3C//DTD SVG 1.1//EN" "http://www.w3.org/Graphics/SVG/1.1/DTD/svg11.dtd"><svg t="1606549035421" class="icon" viewBox="0 0 1024 1024" version="1.1" xmlns="http://www.w3.org/2000/svg" p-id="36537" xmlns:xlink="http://www.w3.org/1999/xlink" width="64" height="64"><defs><style type="text/css"></style></defs><path d="M838.144 320.512c0-9.045333-4.522667-13.568-13.568-18.090667L521.856 157.866667h-18.090667L201.045333 302.421333a62.421333 62.421333 0 0 0-13.568 18.090667 687.914667 687.914667 0 0 0 9.045334 207.829333 474.709333 474.709333 0 0 0 307.2 352.426667h18.090666a658.688 658.688 0 0 0 135.552-76.8 22.613333 22.613333 0 0 0-27.093333-36.138667 498.688 498.688 0 0 1-117.461333 67.754667 434.858667 434.858667 0 0 1-271.104-316.245333 517.290667 517.290667 0 0 1-9.045334-180.736l280.106667-131.029334 280.106667 131.029334a514.602667 514.602667 0 0 1-9.045334 180.736 287.018667 287.018667 0 0 1-27.093333 81.322666c-4.522667 13.568 0 22.570667 13.568 31.616 13.568 4.522667 22.570667 0 31.616-13.568a314.709333 314.709333 0 0 0 27.093333-85.845333 719.232 719.232 0 0 0 9.045334-212.352z m0 0"  p-id="36538"></path><path d="M639.317333 605.141333a149.888 149.888 0 0 0-13.568-189.738666 146.944 146.944 0 0 0-207.829333 207.829333 155.648 155.648 0 0 0 103.936 45.184 148.778667 148.778667 0 0 0 85.845333-27.136l90.368 90.368c4.522667 4.522667 9.045333 4.522667 18.090667 4.522667s13.568 0 18.090667-4.522667a21.845333 21.845333 0 0 0 0-31.616z m-189.738666-13.568a100.906667 100.906667 0 0 1 0-144.554666 106.666667 106.666667 0 0 1 72.277333-31.616 89.856 89.856 0 0 1 72.277333 31.616 100.906667 100.906667 0 0 1 0 144.554666 109.952 109.952 0 0 1-144.597333 0z m0 0"  p-id="36539"></path></svg>
