<?xml version="1.0" standalone="no"?><!DOCTYPE svg PUBLIC "-//W3C//DTD SVG 1.1//EN" "http://www.w3.org/Graphics/SVG/1.1/DTD/svg11.dtd"><svg t="1606549069069" class="icon" viewBox="0 0 1024 1024" version="1.1" xmlns="http://www.w3.org/2000/svg" p-id="36820" xmlns:xlink="http://www.w3.org/1999/xlink" width="64" height="64"><defs><style type="text/css"></style></defs><path d="M601.429333 960.034133H422.7072c-28.125867 0.136533-52.0192-19.319467-55.773867-45.4656l-14.062933-92.16a369.527467 369.527467 0 0 1-49.152-26.624l-94.890667 35.4304a58.641067 58.641067 0 0 1-68.8128-24.029866L51.2 664.029867a50.7904 50.7904 0 0 1 13.789867-67.925334l79.394133-57.7536a294.365867 294.365867 0 0 1-1.297067-26.4192c0-8.192 0-16.9984 1.297067-26.4192l-79.189333-57.685333a50.517333 50.517333 0 0 1-13.994667-67.857067l89.2928-143.9744A57.890133 57.890133 0 0 1 209.578667 193.194667l93.866666 35.2256a381.610667 381.610667 0 0 1 49.083734-26.624l14.404266-92.842667c3.959467-25.941333 27.8528-45.124267 55.773867-44.8512H601.429333c28.0576-0.136533 51.882667 19.319467 55.637334 45.397333l14.336 92.16c17.066667 7.645867 33.518933 16.5888 49.152 26.624l94.8224-35.4304a58.504533 58.504533 0 0 1 68.744533 24.029867l88.6784 143.1552a50.7904 50.7904 0 0 1-13.858133 67.925333l-79.325867 57.7536a279.7568 279.7568 0 0 1 0 52.974934l79.189333 57.685333c21.845333 16.042667 27.8528 44.6464 14.336 67.310933l-89.429333 144.384a57.890133 57.890133 0 0 1-69.154133 22.869334l-93.866667-35.2256a381.269333 381.269333 0 0 1-49.015467 26.624l-14.609066 92.842666c-3.959467 25.941333-27.716267 45.056-55.637334 44.919467z m-168.277333-64.034133h157.969067l18.158933-118.3744 18.090667-6.894933c24.3712-9.489067 47.3088-21.845333 68.266666-36.864l15.291734-10.6496 119.466666 44.509866 78.916267-127.1808-101.102933-73.591466 2.389333-18.090667c3.822933-24.3712 3.822933-49.152 0-73.591467l-2.389333-18.090666L909.312 383.658667 829.781333 256l-119.466666 44.6464-15.36-11.0592c-20.6848-15.018667-43.485867-27.306667-67.652267-36.522667l-18.0224-6.690133-18.158933-118.3744H433.152l-18.295467 118.3744-18.0224 6.894933c-24.3712 9.489067-47.3088 21.845333-68.266666 36.864l-15.018667 10.6496-119.125333-44.782933L115.370667 383.1808l101.102933 73.591467-2.321067 18.090666a275.114667 275.114667 0 0 0-2.935466 36.864c0.136533 12.288 1.092267 24.576 2.8672 36.727467l2.389333 18.090667-101.034667 73.591466 78.916267 127.863467 119.466667-44.6464 15.291733 11.0592c20.753067 15.018667 43.485867 27.306667 67.720533 36.522667l18.090667 6.894933 18.158933 118.1696z m391.509333-120.0128v3.2768-3.2768zM199.8848 247.330133v3.2768-3.2768zM512 689.629867c-104.448-0.6144-188.757333-80.349867-188.347733-178.312534 0.4096-97.962667 85.333333-177.083733 189.781333-176.9472 104.516267 0.2048 189.098667 79.6672 189.098667 177.629867C702.122667 610.304 616.8576 689.7664 512 689.629867z m0-291.2256c-66.7648 0.546133-120.490667 51.677867-120.081067 114.2784 0.4096 62.600533 54.749867 113.117867 121.514667 112.913066 66.833067-0.2048 120.832-50.9952 120.832-113.595733C633.924267 448.989867 579.1744 398.199467 512 398.404267z" p-id="36821"></path></svg>