<?xml version="1.0" standalone="no"?><!DOCTYPE svg PUBLIC "-//W3C//DTD SVG 1.1//EN" "http://www.w3.org/Graphics/SVG/1.1/DTD/svg11.dtd"><svg t="1606548982931" class="icon" viewBox="0 0 1417 1024" version="1.1" xmlns="http://www.w3.org/2000/svg" p-id="36394" xmlns:xlink="http://www.w3.org/1999/xlink" width="88.5625" height="64"><defs><style type="text/css"></style></defs><path d="M589.085096 644.455909v48.743863h144.501183a294.669947 294.669947 0 0 1 19.205082-48.743863h-163.706265zM398.328203 606.719297c-38.049016 0-69.005801 30.959-69.005801 69.008016 0 38.049016 30.956784 69.008017 69.005801 69.008017h49.603528c38.051232 0 69.008017-30.959 69.008016-69.008017 0-38.051232-30.959-69.008017-69.008016-69.008016h-49.603528z m69.869897 69.008016c0 11.173423-9.092946 20.264153-20.264153 20.264153h-49.601313c-11.171207 0-20.264153-9.092946-20.264153-20.264153 0-11.173423 9.092946-20.264153 20.264153-20.264153h49.601313c11.168992 0 20.264153 9.09073 20.264153 20.264153z"  p-id="36395"></path><path d="M740.558867 881.955951a294.585753 294.585753 0 0 1-13.736907-48.743863H464.334041a62.695686 62.695686 0 0 0-7.01247-0.409891h-68.374346c-2.37294 0-4.71043 0.144016-7.014685 0.409891H319.338773c-21.010821 0-38.111054-17.098018-38.111054-38.111054V446.90811c0-31.311285 14.235424-60.302806 39.054912-79.536691l9.4408-7.318227v-52.330968c0.028803-0.722295 0.053175-1.444591 0.053175-2.173533v-11.909012c0-0.367795-0.042097-0.726727-0.053175-1.092306v-180.706795c0-34.796471 28.306891-63.103362 63.103363-63.103362h631.811307c34.798687 0 63.105578 28.306891 63.105578 63.103362v197.600975a24.600142 24.600142 0 0 0-0.416538 4.417967v11.909012c0 2.370724 0.150663 4.71043 0.416538 7.014685v27.269975l9.4408 7.320442c24.815058 19.240532 39.052697 48.229837 39.052697 79.536691v57.719381a296.491195 296.491195 0 0 1 48.743863 26.786969v-84.50635c0-21.301068-4.437907-41.873194-12.786401-60.661737h29.884419c33.347449 0 60.480056-27.130391 60.480056-60.480056v-37.043121c0-33.349665-27.132607-60.480056-60.480056-60.480056h-9.451878c-13.462169 0-24.371932 10.911978-24.371931 24.371932s10.909763 24.371932 24.371931 24.371931h9.451878a11.749487 11.749487 0 0 1 11.736193 11.736193v37.043121a11.749487 11.749487 0 0 1-11.736193 11.736192h-54.278507c-5.448235 0-9.996923-3.748846-11.310792-8.79162V111.840578c0-61.674281-50.17516-111.847225-111.849441-111.847225H392.824578c-61.674281 0-111.847225 50.17516-111.847225 111.847225v194.253158c-0.292463 6.214843-5.395059 11.191148-11.678587 11.191148H215.020259a11.747271 11.747271 0 0 1-11.733978-11.736193v-37.043121a11.747271 11.747271 0 0 1 11.733978-11.736192h9.454094c13.459953 0 24.371932-10.911978 24.371931-24.371932s-10.911978-24.371932-24.371931-24.371932h-9.454094c-33.347449 0-60.47784 27.130391-60.477841 60.480056v37.043121c0 33.349665 27.130391 60.480056 60.477841 60.480056h41.188564c-15.365395 23.762633-23.727183 51.635261-23.727183 80.881578v348.184062c0 47.893061 38.964072 86.857133 86.854917 86.857133h9.064143a61.960097 61.960097 0 0 0-1.3183 12.706639v67.503604c0 34.111842 27.748552 61.862609 61.86261 61.862609h68.374346c34.109626 0 61.860394-27.748552 61.860393-61.862609v-67.503604c0-4.355929-0.458635-8.603292-1.318299-12.706639l222.697417 0.004431z m-270.120765 80.210243a13.13204 13.13204 0 0 1-13.116531 13.118746h-68.374346a13.13204 13.13204 0 0 1-13.118746-13.118746v-67.503604c0-6.132864 4.234069-11.277557 9.923807-12.706639h74.755362c5.694169 1.431297 9.926023 6.578206 9.926023 12.706639l0.004431 67.503604z"  p-id="36396"></path><path d="M826.259441 550.880986v-21.637844h-239.288056v48.743863h211.298a299.380377 299.380377 0 0 1 27.990056-27.106019zM1037.225096 186.013229c0-50.866437-41.38354-92.249977-92.249976-92.249977H472.48756c-50.868653 0-92.252192 41.38354-92.252193 92.249977V421.25776h656.985298l0.004431-235.244531z m-48.743863 186.500667H428.983662V186.013229c0-23.988628 19.517486-43.506114 43.508329-43.506114h472.48756c23.988628 0 43.506114 19.517486 43.506113 43.506114l-0.004431 186.500667z"  p-id="36397"></path><path d="M1186.195205 803.613485c-42.493571 5.731835-73.94444 39.746189-73.944441 84.929535 0 8.428257 2.669834 19.940671 5.756207 25.719035l-36.757304 19.909652-14.129073-14.153445c-16.872024-11.539002-31.001097-16.796692-48.269718-16.796692-14.235424 0-31.003313 5.703032-48.27415 16.796692-5.762854 5.700816-11.51463 8.423826-14.204405 14.153445l-34.043157-19.909652c2.641031-5.778363 5.734051-16.847652 5.734051-25.719035 0.139585-42.845856-31.481889-79.166681-73.942225-84.929535 0-5.780579-2.694206-16.847652-2.694206-28.388869 0-8.423826 2.694206-19.938456 2.694206-28.333478 42.440395-5.782795 73.942225-39.876911 73.942225-85.007082 0-8.448198-2.638816-19.909652-5.734051-25.641488l36.761735-19.965043c2.643247 2.667619 8.348494 8.428257 14.155661 11.541217 16.77232 11.488042 31.001097 16.794477 45.183346 16.794477 14.129073 0 28.309106-5.72962 45.108014-16.794477 5.807167-5.736266 11.510199-8.423826 14.228777-11.541217l36.735148 19.965043c-2.6366 5.731835-5.807167 16.821064-5.807167 25.641488-0.126291 42.883521 31.526201 79.237581 74.015341 85.007082 0 5.72962 2.638816 16.825495 2.638815 28.333478 4.010291 8.406101 0.846371 19.918515 0.846371 28.388869z m39.899067-70.878008c-2.718578-14.202189-14.228777-25.688016-25.692447-25.688016h-2.696422c-25.617116 0-45.103583-19.940671-45.103582-45.163405 0-5.756207 2.634384-14.202189 2.634384-16.821064 5.707463-14.157877 0-31.027685-11.536786-39.848108l-50.886378-28.335694h-14.20662c-8.348494 0-19.889712 2.641031-25.643704 11.488042-5.756207 5.782795-22.603859 19.938456-34.065313 19.938456-11.541217 0-28.388869-14.155661-36.806048-19.938456-5.707463-5.72962-14.157877-11.488042-25.670291-11.488042-5.707463 0-8.372866 0-11.51463 2.641031l-53.979397 28.331263c-11.536786 8.428257-16.869808 25.672506-11.536786 39.830383 0 0 2.638816 8.448198 2.638815 16.845436a44.472128 44.472128 0 0 1-12.996886 32.135499 44.498716 44.498716 0 0 1-32.108912 13.052277h-2.716363c-11.51463 0-22.579487 11.539002-25.66586 25.668076 0 2.665403-5.740698 22.577271-5.740697 42.537883 0 16.847652 2.643247 39.848108 5.740697 42.418239 2.689775 14.230992 14.129073 25.743407 25.66586 25.743407h2.716363c25.668075 0 45.105799 19.93624 45.105798 45.185561 0 5.707463-2.638816 14.131289-2.638815 16.747948-5.705248 14.230992 0 30.952353 11.536786 39.848108l50.868652 28.40881c6.598147 1.947539 8.43712 0.972662 14.140152 0.972662 8.426041 0 19.980553-6.283527 25.785504-15.203654 5.705248-5.731835 22.552899-22.479783 36.732932-22.479784 11.510199 0 30.927981 14.13572 36.735148 22.479784 5.72962 5.780579 14.177817 11.565589 25.692447 11.565589 5.707463 0 8.399454 0 14.129073-2.641031l50.890809-28.364497c11.51463-8.395023 16.872024-25.634841 11.51463-39.894637 0 0-2.623306-8.352926-2.623306-16.77232 0-25.692447 19.940671-45.183346 45.185561-45.183345h2.643247c11.490258 0 22.575056-11.541217 25.639272-25.672507 0 0 5.734051-22.552899 5.734051-42.540099-5.288709-14.160092-7.900937-36.737363-7.900938-39.803795z m-207.192437 79.25309c-19.938456 0-36.808264-16.847652-36.808264-36.761735 0-19.938456 16.869808-36.75952 36.808264-36.75952 19.880849 0 36.732932 16.821064 36.732932 36.75952 0.398813 19.916299-16.874239 36.761735-36.732932 36.761735z m14.129073-113.342776c-54.034788-11.539002-102.273488 36.732932-90.792092 93.40432 5.780579 30.972294 31.027685 56.642585 62.401008 62.37442 54.079101 11.58553 102.331094-36.681973 90.814248-90.707898-5.304219-33.646559-30.998881-59.341222-62.423164-65.070842z"  p-id="36398"></path></svg>
