<?xml version="1.0" standalone="no"?><!DOCTYPE svg PUBLIC "-//W3C//DTD SVG 1.1//EN" "http://www.w3.org/Graphics/SVG/1.1/DTD/svg11.dtd"><svg t="1606568242442" class="icon" viewBox="0 0 1024 1024" version="1.1" xmlns="http://www.w3.org/2000/svg" p-id="11239" xmlns:xlink="http://www.w3.org/1999/xlink" width="64" height="64"><defs><style type="text/css"></style></defs><path d="M888.364 755.818a8.182 8.182 0 0 1-4.5 7.323L650.273 882.268a8.182 8.182 0 0 1-7.568-0.04L387.35 746.817a73.636 73.636 0 0 0-67.91-0.573l-183.804 93.437V464.055l66.969-31.91a32.727 32.727 0 1 0-28.146-59.113l-81 38.577a40.91 40.91 0 0 0-23.277 36.982v431.182a40.91 40.91 0 0 0 59.44 36.409l219.519-111.56a8.182 8.182 0 0 1 7.527 0.083l255.396 135.409a73.636 73.636 0 0 0 67.909 0.49l233.672-119.127a73.636 73.636 0 0 0 40.173-65.577V359.818a40.91 40.91 0 0 0-54.286-38.659l-73.637 25.486a32.727 32.727 0 0 0 21.396 61.855l41.073-14.236v361.554z" p-id="11240"></path><path d="M570.377 713.273c132.628-172.514 199.35-299.128 199.35-385.364a257.727 257.727 0 0 0-515.454 0c0 86.236 66.722 212.85 199.35 385.364a73.636 73.636 0 0 0 116.754 0z m-51.872-39.928a8.182 8.182 0 0 1-13.01 0C381.377 511.918 319.727 394.918 319.727 327.91a192.273 192.273 0 0 1 384.546 0c0 67.01-61.65 184.01-185.768 345.436z" p-id="11241"></path><path d="M512 460.618a132.71 132.71 0 1 0 0-265.418 132.71 132.71 0 0 0 0 265.418z m0-65.454a67.255 67.255 0 1 1 0-134.51 67.255 67.255 0 0 1 0 134.51z" p-id="11242"></path></svg>