<svg width="100" height="105" viewBox="0 0 100 105" fill="none" xmlns="http://www.w3.org/2000/svg">
<path d="M44.9026 4.10289L44.0859 3.28615C42.271 1.47129 39.3285 1.47129 37.5137 3.28615V3.28615C35.6988 5.10102 35.6988 8.04351 37.5136 9.85837L44.8163 17.161L47.4635 19.8082" stroke="#FBC22F" stroke-linecap="round"/>
<path d="M51.4099 4.10289L52.2266 3.28615C54.0415 1.47129 56.984 1.47129 58.7988 3.28615V3.28615C60.6137 5.10102 60.6137 8.04351 58.7989 9.85837L51.4962 17.161L48.849 19.8082" stroke="#FBC22F" stroke-linecap="round"/>
<path d="M21.4817 71.7269C30.8872 67.0325 34.0705 71.5997 37.1049 77.6791C40.1392 83.7586 41.8755 89.048 32.4699 93.7425C20.8821 99.5261 9.02847 99.2864 5.99414 93.2069C2.95981 87.1275 9.89381 77.5106 21.4817 71.7269Z" fill="#CADA7D"/>
<path d="M75.1552 71.7269C65.7496 67.0325 62.5663 71.5997 59.532 77.6791C56.4976 83.7586 54.7613 89.048 64.1669 93.7425C75.7548 99.5261 87.6084 99.2864 90.6427 93.2069C93.677 87.1275 86.743 77.5106 75.1552 71.7269Z" fill="#CADA7D"/>
<path d="M99.5 59.5581C99.5 81.3256 77.7858 83 51 83C24.2142 83 2.5 81.3256 2.5 59.5581C2.5 32.7402 24.2142 11 51 11C77.7858 11 99.5 32.7402 99.5 59.5581Z" fill="#FBC22F"/>
<path d="M96.5 56.186C96.5 76.4419 76.129 78 51 78C25.871 78 5.5 76.4419 5.5 56.186C5.5 31.2305 25.871 11 51 11C76.129 11 96.5 31.2305 96.5 56.186Z" fill="#FDD044"/>
<path d="M37.5 81H59.5V89.6483C50.788 90.1172 45.9812 90.1172 37.5 89.6483V81Z" fill="#FBC22F"/>
<path d="M17.925 35.678C19.5745 34.3952 21.5415 33.89 23.4789 34.431" stroke="black" stroke-linecap="round"/>
<path d="M81.0109 35.678C79.3614 34.3952 77.3944 33.89 75.4571 34.431" stroke="black" stroke-linecap="round"/>
<path fill-rule="evenodd" clip-rule="evenodd" d="M49.8501 58.1823C48.0174 58.0354 47.0884 56.381 46.7204 55.2771C46.2244 53.7891 47.3286 53.9148 48.7061 54.0716C49.0625 54.1122 49.4372 54.1548 49.8072 54.1722C50.2681 54.1698 50.7353 54.1172 51.1682 54.0684C52.4967 53.9187 53.5014 53.8055 53.0047 55.2955C52.6255 56.4329 51.9337 58.2187 49.8516 58.1953C49.8511 58.1909 49.8506 58.1866 49.8501 58.1823Z" fill="#60362D"/>
<ellipse cx="26" cy="49" rx="9.5" ry="10" fill="#FBC22F"/>
<ellipse cx="25.5" cy="49.5" rx="8" ry="8.5" fill="white"/>
<path d="M30.5 51C29.953 48.5536 28.5084 47 26.0231 47C23.5378 47 21.8257 48.5536 21.5 51" stroke="#60362D" stroke-width="1.5" stroke-linecap="round"/>
<circle cx="74.5" cy="49" r="10" fill="#FBC22F"/>
<ellipse cx="74.5" cy="49.5" rx="9" ry="8.5" fill="white"/>
<path d="M79.5 51C78.953 48.5536 77.5084 47 75.0231 47C72.5378 47 70.8257 48.5536 70.5 51" stroke="#60362D" stroke-width="1.5" stroke-linecap="round"/>
<ellipse cx="15.4268" cy="66.6714" rx="2.3468" ry="1.41242" transform="rotate(-13.6387 15.4268 66.6714)" fill="#FFBA98"/>
<path d="M44 69H56L54.5 72L49.5 72.5L44.5 71.5L44 69Z" fill="#FFBA98"/>
<path d="M57 68C56.1491 70.6914 53.8649 72.9999 49.9989 72.9999C46.1329 72.9999 43.5066 70.6914 43 68" stroke="#DC5E16" stroke-width="2" stroke-linecap="round"/>
</svg>
