<svg width="62" height="36" viewBox="0 0 62 36" fill="none" xmlns="http://www.w3.org/2000/svg">
<path d="M22.6999 3.77259C24.4356 4.78081 25.1291 6.93732 24.3066 8.76833L15.2836 28.8545C13.7715 32.2205 9.67789 33.5371 6.48705 31.6837C3.29622 29.8302 2.41184 25.622 4.58664 22.6409L17.5643 4.85188C18.7473 3.23027 20.9642 2.76437 22.6999 3.77259Z" fill="#FBC22F"/>
<path d="M22.0103 3.37208C23.5437 4.26278 24.1526 6.17057 23.4186 7.78487L14.8214 26.6943C13.4686 29.6699 9.84252 30.8271 7.0161 29.1853C4.18967 27.5435 3.39846 23.8204 5.31296 21.1711L10.5232 13.961L14.9162 7.88203L17.4795 4.33496C18.5181 2.89766 20.477 2.48138 22.0103 3.37208Z" fill="#FDD044"/>
<path d="M39.3003 3.77259C37.5646 4.78081 36.871 6.93732 37.6935 8.76833L46.7166 28.8545C48.2287 32.2205 52.3222 33.5371 55.5131 31.6837C58.7039 29.8302 59.5883 25.622 57.4135 22.6409L44.4359 4.85188C43.2528 3.23027 41.036 2.76437 39.3003 3.77259Z" fill="#FBC22F"/>
<path d="M39.9898 3.37208C38.4564 4.26278 37.8476 6.17057 38.5815 7.78487L47.1787 26.6943C48.5315 29.6699 52.1576 30.8271 54.984 29.1853C57.8105 27.5435 58.6017 23.8204 56.6872 21.1711L44.5207 4.33496C43.482 2.89766 41.5232 2.48138 39.9898 3.37208Z" fill="#FDD044"/>
</svg>
