<?xml version="1.0" standalone="no"?><!DOCTYPE svg PUBLIC "-//W3C//DTD SVG 1.1//EN" "http://www.w3.org/Graphics/SVG/1.1/DTD/svg11.dtd"><svg class="icon" width="200px" height="200.00px" viewBox="0 0 1024 1024" version="1.1" xmlns="http://www.w3.org/2000/svg"><path  d="M124.3 549.1c31.4 44.5 74.7 76.1 126.9 92.2 13.4 4.1 27.5 7.2 41.9 9.2 2.7 0.4 5.4 0.6 8.1 0.6 14.4 0 28.5-5.2 39.5-14.8 13.1-11.4 20.5-27.9 20.5-45.2v-12.6L467 693.6 361.4 812.1V792c0-30.6-23-56.3-53.5-59.6-29.9-3.3-53.5-12-68-18.8h-0.1c-18.8-8.7-31.2-17.7-36.9-22.3l-0.1-0.1c-40.3-32.3-65.3-68.5-74.5-107.6-2.9-12.5-4-24.1-4-34.5m-8.2-87.2c-1.4 0-2.6 0.1-3.6 0.1h-0.1c-0.2 0-0.4 0-0.7 0.1-19 1.9-34.8 14.8-40 33.4-6.4 22.8-12 59-1.9 101.9 12.3 52.3 44.5 99.7 95.4 140.6 6.2 5 23 17.9 49.4 30.1 19.9 9.3 49.9 19.9 86.8 24v51.1c0 20.2 12.2 37.8 31 44.9 5.7 2.2 11.6 3.3 17.4 3.3 13.4 0 26.4-5.7 35.8-16.1l129.1-144.6c19-21.3 18.9-53.3-0.4-74.4L385 515.6c-9.4-10.1-22.1-15.6-35.3-15.6-5.9 0-11.9 1.1-17.7 3.4-18.6 7.3-30.7 24.9-30.7 44.9V591c-9.6-1.3-20.7-3.5-32.4-7.1-49.7-15.4-87.2-47.8-111.7-96.5-7.8-15.7-23.6-25.5-41.1-25.5z"  /><path  d="M955 762.2C928 698.3 883.3 644 825.6 605c-22.6-15.3-46.7-27.8-71.8-37.4C829.7 530.3 882 452.2 882 361.8c0-126.6-102.6-229.2-229.2-229.2S423.7 235.3 423.7 361.8c0 82.2 43.2 154.2 108.2 194.7-6.6 1.8-13.2 3.8-19.8 6-15.7 5.3-24.2 22.3-18.9 38 5.3 15.7 22.3 24.2 38 18.9 30.4-10.2 62.2-15.4 94.6-15.4 119.8 0 227.3 71.3 273.9 181.6 4.8 11.4 16 18.3 27.6 18.3 3.9 0 7.9-0.8 11.7-2.4 15.3-6.4 22.5-24 16-39.3zM483.7 361.8c0-45.2 17.6-87.7 49.5-119.6 32-32 74.4-49.5 119.6-49.5s87.7 17.6 119.6 49.5c32 32 49.5 74.4 49.5 119.6s-17.6 87.7-49.5 119.6c-32 32-74.4 49.5-119.6 49.5s-87.7-17.6-119.6-49.5c-31.9-31.9-49.5-74.4-49.5-119.6z"  /></svg>
